<svg xmlns="http://www.w3.org/2000/svg" xmlns:xlink="http://www.w3.org/1999/xlink" width="1366" zoomAndPan="magnify" viewBox="0 0 1024.5 576" height="768" preserveAspectRatio="xMidYMid meet" version="1.0"><defs><clipPath id="2c3896bfd2"><path d="M 609.179688 500.726562 L 650.53125 500.726562 L 650.53125 543.210938 L 609.179688 543.210938 Z M 609.179688 500.726562 " clip-rule="nonzero"/></clipPath><clipPath id="3b3f12e83e"><path d="M 629.855469 500.726562 L 630.695312 518.171875 L 639.03125 502.796875 L 632.246094 518.949219 L 646.460938 508.738281 L 633.34375 520.242188 L 650.53125 517.203125 L 633.730469 521.921875 L 650.53125 526.636719 L 633.34375 523.601562 L 646.460938 535.167969 L 632.246094 524.957031 L 639.03125 541.046875 L 630.695312 525.667969 L 629.855469 543.113281 L 629.015625 525.667969 L 620.679688 541.046875 L 627.464844 524.957031 L 613.25 535.167969 L 626.367188 523.601562 L 609.179688 526.636719 L 625.976562 521.921875 L 609.179688 517.203125 L 626.367188 520.242188 L 613.25 508.738281 L 627.464844 518.949219 L 620.679688 502.796875 L 629.015625 518.171875 Z M 629.855469 500.726562 " clip-rule="nonzero"/></clipPath><clipPath id="d85d27f876"><path d="M 0.179688 0.726562 L 41.53125 0.726562 L 41.53125 43.210938 L 0.179688 43.210938 Z M 0.179688 0.726562 " clip-rule="nonzero"/></clipPath><clipPath id="5797c819d6"><path d="M 20.855469 0.726562 L 21.695312 18.171875 L 30.03125 2.796875 L 23.246094 18.949219 L 37.460938 8.738281 L 24.34375 20.242188 L 41.53125 17.203125 L 24.730469 21.921875 L 41.53125 26.636719 L 24.34375 23.601562 L 37.460938 35.167969 L 23.246094 24.957031 L 30.03125 41.046875 L 21.695312 25.667969 L 20.855469 43.113281 L 20.015625 25.667969 L 11.679688 41.046875 L 18.464844 24.957031 L 4.25 35.167969 L 17.367188 23.601562 L 0.179688 26.636719 L 16.976562 21.921875 L 0.179688 17.203125 L 17.367188 20.242188 L 4.25 8.738281 L 18.464844 18.949219 L 11.679688 2.796875 L 20.015625 18.171875 Z M 20.855469 0.726562 " clip-rule="nonzero"/></clipPath><clipPath id="6eccbc6346"><rect x="0" width="42" y="0" height="44"/></clipPath><clipPath id="ba2c6f91f9"><path d="M 16.21875 14.90625 L 57.570312 14.90625 L 57.570312 57.390625 L 16.21875 57.390625 Z M 16.21875 14.90625 " clip-rule="nonzero"/></clipPath><clipPath id="0bedaf4b30"><path d="M 36.894531 14.90625 L 37.734375 32.351562 L 46.070312 16.972656 L 39.285156 33.128906 L 53.5 22.917969 L 40.386719 34.417969 L 57.570312 31.382812 L 40.773438 36.101562 L 57.570312 40.816406 L 40.386719 37.78125 L 53.5 49.34375 L 39.285156 39.136719 L 46.070312 55.226562 L 37.734375 39.847656 L 36.894531 57.292969 L 36.054688 39.847656 L 27.722656 55.226562 L 34.503906 39.136719 L 20.289062 49.34375 L 33.40625 37.78125 L 16.21875 40.816406 L 33.019531 36.101562 L 16.21875 31.382812 L 33.40625 34.417969 L 20.289062 22.917969 L 34.503906 33.128906 L 27.722656 16.972656 L 36.054688 32.351562 Z M 36.894531 14.90625 " clip-rule="nonzero"/></clipPath><clipPath id="4ce1741e62"><path d="M 0.21875 0.90625 L 41.570312 0.90625 L 41.570312 43.390625 L 0.21875 43.390625 Z M 0.21875 0.90625 " clip-rule="nonzero"/></clipPath><clipPath id="1b222cb866"><path d="M 20.894531 0.90625 L 21.734375 18.351562 L 30.070312 2.972656 L 23.285156 19.128906 L 37.5 8.917969 L 24.386719 20.417969 L 41.570312 17.382812 L 24.773438 22.101562 L 41.570312 26.816406 L 24.386719 23.78125 L 37.5 35.34375 L 23.285156 25.136719 L 30.070312 41.226562 L 21.734375 25.847656 L 20.894531 43.292969 L 20.054688 25.847656 L 11.722656 41.226562 L 18.503906 25.136719 L 4.289062 35.34375 L 17.40625 23.78125 L 0.21875 26.816406 L 17.019531 22.101562 L 0.21875 17.382812 L 17.40625 20.417969 L 4.289062 8.917969 L 18.503906 19.128906 L 11.722656 2.972656 L 20.054688 18.351562 Z M 20.894531 0.90625 " clip-rule="nonzero"/></clipPath><clipPath id="ffce77aa78"><rect x="0" width="42" y="0" height="44"/></clipPath></defs><g clip-path="url(#2c3896bfd2)"><g clip-path="url(#3b3f12e83e)"><g transform="matrix(1, 0, 0, 1, 609, 500)"><g clip-path="url(#6eccbc6346)"><g clip-path="url(#d85d27f876)"><g clip-path="url(#5797c819d6)"><path fill="#8c52ff" d="M 0.179688 0.726562 L 41.53125 0.726562 L 41.53125 43.210938 L 0.179688 43.210938 Z M 0.179688 0.726562 " fill-opacity="1" fill-rule="nonzero"/></g></g></g></g></g></g><g clip-path="url(#ba2c6f91f9)"><g clip-path="url(#0bedaf4b30)"><g transform="matrix(1, 0, 0, 1, 16, 14)"><g clip-path="url(#ffce77aa78)"><g clip-path="url(#4ce1741e62)"><g clip-path="url(#1b222cb866)"><path fill="#8c52ff" d="M 0.21875 0.90625 L 41.570312 0.90625 L 41.570312 43.390625 L 0.21875 43.390625 Z M 0.21875 0.90625 " fill-opacity="1" fill-rule="nonzero"/></g></g></g></g></g></g></svg>