<svg xmlns="http://www.w3.org/2000/svg" xmlns:xlink="http://www.w3.org/1999/xlink" width="1366" zoomAndPan="magnify" viewBox="0 0 1024.5 576" height="768" preserveAspectRatio="xMidYMid meet" version="1.0"><defs><filter x="0%" y="0%" width="100%" height="100%" id="44ce481f59"><feColorMatrix values="0 0 0 0 1 0 0 0 0 1 0 0 0 0 1 0 0 0 1 0" color-interpolation-filters="sRGB"/></filter><g/><clipPath id="058bdd0e86"><path d="M 198.652344 518.289062 L 896.183594 518.289062 L 896.183594 549.578125 L 198.652344 549.578125 Z M 198.652344 518.289062 " clip-rule="nonzero"/></clipPath><clipPath id="778b23f7bf"><path d="M 214.296875 518.289062 L 880.46875 518.289062 C 889.109375 518.289062 896.113281 525.292969 896.113281 533.933594 C 896.113281 542.574219 889.109375 549.578125 880.46875 549.578125 L 214.296875 549.578125 C 205.65625 549.578125 198.652344 542.574219 198.652344 533.933594 C 198.652344 525.292969 205.65625 518.289062 214.296875 518.289062 Z M 214.296875 518.289062 " clip-rule="nonzero"/></clipPath><clipPath id="cc7e7c80d7"><path d="M 0.652344 0.289062 L 698.183594 0.289062 L 698.183594 31.578125 L 0.652344 31.578125 Z M 0.652344 0.289062 " clip-rule="nonzero"/></clipPath><clipPath id="5d60ce2a8a"><path d="M 16.296875 0.289062 L 682.46875 0.289062 C 691.109375 0.289062 698.113281 7.292969 698.113281 15.933594 C 698.113281 24.574219 691.109375 31.578125 682.46875 31.578125 L 16.296875 31.578125 C 7.65625 31.578125 0.652344 24.574219 0.652344 15.933594 C 0.652344 7.292969 7.65625 0.289062 16.296875 0.289062 Z M 16.296875 0.289062 " clip-rule="nonzero"/></clipPath><clipPath id="8c6a8cac93"><rect x="0" width="699" y="0" height="32"/></clipPath><clipPath id="9df2806fa5"><path d="M 866.027344 528.269531 L 879.523438 528.269531 L 879.523438 539.511719 L 866.027344 539.511719 Z M 866.027344 528.269531 " clip-rule="nonzero"/></clipPath><mask id="403ce21c81"><g filter="url(#44ce481f59)"><rect x="-102.45" width="1229.4" fill="#000000" y="-57.6" height="691.2" fill-opacity="0.62"/></g></mask><clipPath id="f42f6c3141"><path d="M 0.730469 0 L 161.453125 0 L 161.453125 8.878906 L 0.730469 8.878906 Z M 0.730469 0 " clip-rule="nonzero"/></clipPath><clipPath id="1d1a428d48"><rect x="0" width="162" y="0" height="9"/></clipPath><clipPath id="436871168d"><rect x="0" width="162" y="0" height="9"/></clipPath></defs><g clip-path="url(#058bdd0e86)"><g clip-path="url(#778b23f7bf)"><g transform="matrix(1, 0, 0, 1, 198, 518)"><g clip-path="url(#8c6a8cac93)"><g clip-path="url(#cc7e7c80d7)"><g clip-path="url(#5d60ce2a8a)"><path fill="#8c52ff" d="M 0.652344 0.289062 L 698.058594 0.289062 L 698.058594 31.578125 L 0.652344 31.578125 Z M 0.652344 0.289062 " fill-opacity="1" fill-rule="nonzero"/></g></g></g></g></g></g><g clip-path="url(#9df2806fa5)"><path fill="#000000" d="M 879.386719 528.582031 C 879.265625 528.371094 879.085938 528.273438 878.84375 528.289062 L 867.128906 528.996094 C 866.890625 529.011719 866.679688 529.09375 866.496094 529.25 C 866.3125 529.40625 866.195312 529.597656 866.140625 529.832031 C 866.089844 530.066406 866.109375 530.292969 866.207031 530.511719 C 866.300781 530.734375 866.453125 530.902344 866.664062 531.019531 L 870.910156 533.425781 C 870.953125 533.449219 870.972656 533.480469 870.96875 533.527344 L 870.921875 538.425781 C 870.917969 538.667969 870.988281 538.882812 871.128906 539.078125 C 871.269531 539.273438 871.457031 539.402344 871.6875 539.472656 C 871.789062 539.503906 871.898438 539.519531 872.003906 539.519531 C 872.390625 539.519531 872.691406 539.359375 872.902344 539.035156 L 879.367188 529.203125 C 879.503906 529 879.511719 528.792969 879.386719 528.582031 Z M 866.894531 530.605469 C 866.777344 530.539062 866.691406 530.445312 866.636719 530.320312 C 866.585938 530.199219 866.570312 530.070312 866.601562 529.9375 C 866.632812 529.808594 866.699219 529.699219 866.800781 529.613281 C 866.902344 529.523438 867.023438 529.476562 867.15625 529.46875 L 878.570312 528.78125 L 871.203125 533.050781 C 871.183594 533.039062 871.164062 533.027344 871.144531 533.015625 Z M 872.507812 538.773438 C 872.433594 538.886719 872.332031 538.964844 872.207031 539.011719 C 872.078125 539.054688 871.953125 539.058594 871.824219 539.019531 C 871.695312 538.980469 871.589844 538.90625 871.511719 538.796875 C 871.433594 538.6875 871.394531 538.566406 871.394531 538.433594 L 871.441406 533.535156 C 871.441406 533.511719 871.441406 533.488281 871.4375 533.464844 L 878.808594 529.191406 Z M 872.507812 538.773438 " fill-opacity="1" fill-rule="nonzero"/></g><g mask="url(#403ce21c81)"><g transform="matrix(1, 0, 0, 1, 225, 531)"><g clip-path="url(#436871168d)"><g clip-path="url(#f42f6c3141)"><g><g clip-path="url(#1d1a428d48)"><g fill="#ffffff" fill-opacity="1"><g transform="translate(0.95962, 6.276959)"><g><path d="M 1.6875 -5.640625 L 1.6875 0 L 0.40625 0 L 0.40625 -5.640625 Z M 1.6875 -5.640625 "/></g></g></g><g fill="#ffffff" fill-opacity="1"><g transform="translate(3.746594, 6.276959)"><g><path d="M 1.6875 -3.5 L 1.6875 0 L 0.40625 0 L 0.40625 -5.640625 L 1.6875 -5.640625 L 3.9375 -2.140625 L 3.953125 -2.140625 L 3.953125 -5.640625 L 5.234375 -5.640625 L 5.234375 0 L 3.953125 0 L 1.703125 -3.5 Z M 1.6875 -3.5 "/></g></g></g><g fill="#ffffff" fill-opacity="1"><g transform="translate(10.071584, 6.276959)"><g><path d="M 3.671875 -5.640625 L 3.671875 -4.5 L 1.6875 -4.5 L 1.6875 -3.390625 L 3.515625 -3.390625 L 3.515625 -2.265625 L 1.6875 -2.265625 L 1.6875 0 L 0.40625 0 L 0.40625 -5.640625 Z M 3.671875 -5.640625 "/></g></g></g><g fill="#ffffff" fill-opacity="1"><g transform="translate(14.627564, 6.276959)"><g><path d="M 0.15625 -2.8125 C 0.15625 -3.632812 0.429688 -4.328125 0.984375 -4.890625 C 1.546875 -5.453125 2.21875 -5.734375 3 -5.734375 C 3.78125 -5.734375 4.445312 -5.453125 5 -4.890625 C 5.550781 -4.328125 5.828125 -3.632812 5.828125 -2.8125 C 5.828125 -1.988281 5.554688 -1.296875 5.015625 -0.734375 C 4.472656 -0.171875 3.800781 0.109375 3 0.109375 C 2.175781 0.109375 1.492188 -0.171875 0.953125 -0.734375 C 0.421875 -1.296875 0.15625 -1.988281 0.15625 -2.8125 Z M 1.546875 -2.8125 C 1.546875 -2.519531 1.585938 -2.25 1.671875 -2 C 1.765625 -1.757812 1.925781 -1.554688 2.15625 -1.390625 C 2.382812 -1.222656 2.664062 -1.140625 3 -1.140625 C 3.476562 -1.140625 3.835938 -1.300781 4.078125 -1.625 C 4.316406 -1.957031 4.4375 -2.351562 4.4375 -2.8125 C 4.4375 -3.28125 4.3125 -3.675781 4.0625 -4 C 3.820312 -4.332031 3.46875 -4.5 3 -4.5 C 2.53125 -4.5 2.171875 -4.332031 1.921875 -4 C 1.671875 -3.675781 1.546875 -3.28125 1.546875 -2.8125 Z M 1.546875 -2.8125 "/></g></g></g><g fill="#ffffff" fill-opacity="1"><g transform="translate(21.300889, 6.276959)"><g><path d="M 0.40625 -5.640625 L 2.421875 -5.640625 C 2.960938 -5.640625 3.40625 -5.492188 3.75 -5.203125 C 4.09375 -4.910156 4.265625 -4.492188 4.265625 -3.953125 C 4.265625 -3.546875 4.160156 -3.203125 3.953125 -2.921875 C 3.742188 -2.640625 3.460938 -2.441406 3.109375 -2.328125 L 5.046875 0 L 3.40625 0 L 1.6875 -2.21875 L 1.6875 0 L 0.40625 0 Z M 1.6875 -3.140625 L 1.84375 -3.140625 C 1.957031 -3.140625 2.054688 -3.140625 2.140625 -3.140625 C 2.222656 -3.140625 2.316406 -3.15625 2.421875 -3.1875 C 2.523438 -3.21875 2.609375 -3.253906 2.671875 -3.296875 C 2.734375 -3.347656 2.785156 -3.421875 2.828125 -3.515625 C 2.878906 -3.617188 2.90625 -3.738281 2.90625 -3.875 C 2.90625 -4.007812 2.878906 -4.125 2.828125 -4.21875 C 2.785156 -4.3125 2.734375 -4.382812 2.671875 -4.4375 C 2.609375 -4.488281 2.523438 -4.523438 2.421875 -4.546875 C 2.316406 -4.578125 2.222656 -4.59375 2.140625 -4.59375 C 2.054688 -4.601562 1.957031 -4.609375 1.84375 -4.609375 L 1.6875 -4.609375 Z M 1.6875 -3.140625 "/></g></g></g><g fill="#ffffff" fill-opacity="1"><g transform="translate(26.874562, 6.276959)"><g><path d="M 5.0625 0 L 4.796875 -3.34375 L 4.765625 -3.34375 L 3.609375 -0.03125 L 2.84375 -0.03125 L 1.6875 -3.34375 L 1.65625 -3.34375 L 1.390625 0 L 0.109375 0 L 0.609375 -5.640625 L 1.984375 -5.640625 L 3.234375 -2.390625 L 4.484375 -5.640625 L 5.84375 -5.640625 L 6.34375 0 Z M 5.0625 0 "/></g></g></g><g fill="#ffffff" fill-opacity="1"><g transform="translate(34.01917, 6.276959)"><g><path d="M 3.625 -5.640625 L 3.625 -4.5 L 1.6875 -4.5 L 1.6875 -3.390625 L 3.546875 -3.390625 L 3.546875 -2.265625 L 1.6875 -2.265625 L 1.6875 -1.125 L 3.625 -1.125 L 3.625 0 L 0.40625 0 L 0.40625 -5.640625 Z M 3.625 -5.640625 "/></g></g></g><g fill="#ffffff" fill-opacity="1"><g transform="translate(38.663943, 6.276959)"><g/></g></g><g fill="#ffffff" fill-opacity="1"><g transform="translate(41.211862, 6.276959)"><g><path d="M 2.484375 -5.734375 C 2.785156 -5.734375 3.082031 -5.6875 3.375 -5.59375 C 3.664062 -5.507812 3.882812 -5.425781 4.03125 -5.34375 L 4.234375 -5.203125 L 3.71875 -4.171875 C 3.675781 -4.203125 3.617188 -4.238281 3.546875 -4.28125 C 3.472656 -4.320312 3.332031 -4.378906 3.125 -4.453125 C 2.925781 -4.523438 2.742188 -4.5625 2.578125 -4.5625 C 2.359375 -4.5625 2.191406 -4.515625 2.078125 -4.421875 C 1.960938 -4.335938 1.90625 -4.21875 1.90625 -4.0625 C 1.90625 -3.988281 1.929688 -3.914062 1.984375 -3.84375 C 2.035156 -3.78125 2.128906 -3.707031 2.265625 -3.625 C 2.398438 -3.550781 2.515625 -3.492188 2.609375 -3.453125 C 2.710938 -3.410156 2.867188 -3.34375 3.078125 -3.25 C 3.441406 -3.09375 3.75 -2.878906 4 -2.609375 C 4.257812 -2.347656 4.390625 -2.050781 4.390625 -1.71875 C 4.390625 -1.394531 4.332031 -1.109375 4.21875 -0.859375 C 4.101562 -0.617188 3.941406 -0.429688 3.734375 -0.296875 C 3.535156 -0.160156 3.3125 -0.0625 3.0625 0 C 2.820312 0.0703125 2.5625 0.109375 2.28125 0.109375 C 2.03125 0.109375 1.785156 0.0820312 1.546875 0.03125 C 1.304688 -0.0195312 1.109375 -0.0820312 0.953125 -0.15625 C 0.796875 -0.226562 0.648438 -0.300781 0.515625 -0.375 C 0.390625 -0.445312 0.300781 -0.507812 0.25 -0.5625 L 0.15625 -0.640625 L 0.796875 -1.71875 C 0.847656 -1.675781 0.921875 -1.617188 1.015625 -1.546875 C 1.117188 -1.472656 1.289062 -1.375 1.53125 -1.25 C 1.769531 -1.132812 1.984375 -1.078125 2.171875 -1.078125 C 2.710938 -1.078125 2.984375 -1.265625 2.984375 -1.640625 C 2.984375 -1.710938 2.960938 -1.78125 2.921875 -1.84375 C 2.890625 -1.914062 2.820312 -1.984375 2.71875 -2.046875 C 2.625 -2.117188 2.539062 -2.171875 2.46875 -2.203125 C 2.394531 -2.242188 2.269531 -2.300781 2.09375 -2.375 C 1.925781 -2.457031 1.800781 -2.519531 1.71875 -2.5625 C 1.375 -2.726562 1.109375 -2.9375 0.921875 -3.1875 C 0.742188 -3.445312 0.65625 -3.722656 0.65625 -4.015625 C 0.65625 -4.515625 0.835938 -4.925781 1.203125 -5.25 C 1.578125 -5.570312 2.003906 -5.734375 2.484375 -5.734375 Z M 2.484375 -5.734375 "/></g></g></g><g fill="#ffffff" fill-opacity="1"><g transform="translate(46.485012, 6.276959)"><g><path d="M 3.625 -5.640625 L 3.625 -4.5 L 1.6875 -4.5 L 1.6875 -3.390625 L 3.546875 -3.390625 L 3.546875 -2.265625 L 1.6875 -2.265625 L 1.6875 -1.125 L 3.625 -1.125 L 3.625 0 L 0.40625 0 L 0.40625 -5.640625 Z M 3.625 -5.640625 "/></g></g></g><g fill="#ffffff" fill-opacity="1"><g transform="translate(51.129785, 6.276959)"><g><path d="M 4.734375 -5.640625 L 4.734375 -2 C 4.734375 -1.3125 4.546875 -0.785156 4.171875 -0.421875 C 3.804688 -0.0664062 3.265625 0.109375 2.546875 0.109375 C 1.828125 0.109375 1.28125 -0.0664062 0.90625 -0.421875 C 0.53125 -0.785156 0.34375 -1.3125 0.34375 -2 L 0.34375 -5.640625 L 1.625 -5.640625 L 1.625 -2.375 C 1.625 -1.914062 1.695312 -1.597656 1.84375 -1.421875 C 1.988281 -1.242188 2.222656 -1.15625 2.546875 -1.15625 C 2.867188 -1.15625 3.097656 -1.242188 3.234375 -1.421875 C 3.378906 -1.597656 3.453125 -1.914062 3.453125 -2.375 L 3.453125 -5.640625 Z M 4.734375 -5.640625 "/></g></g></g><g fill="#ffffff" fill-opacity="1"><g transform="translate(56.894704, 6.276959)"><g/></g></g><g fill="#ffffff" fill-opacity="1"><g transform="translate(59.442624, 6.276959)"><g><path d="M 0.40625 -5.640625 L 2.46875 -5.640625 C 3.039062 -5.640625 3.503906 -5.488281 3.859375 -5.1875 C 4.210938 -4.894531 4.390625 -4.460938 4.390625 -3.890625 C 4.390625 -3.328125 4.207031 -2.882812 3.84375 -2.5625 C 3.488281 -2.25 3.03125 -2.09375 2.46875 -2.09375 L 1.6875 -2.09375 L 1.6875 0 L 0.40625 0 Z M 1.6875 -3.109375 L 2.0625 -3.109375 C 2.34375 -3.109375 2.570312 -3.164062 2.75 -3.28125 C 2.9375 -3.40625 3.03125 -3.597656 3.03125 -3.859375 C 3.03125 -4.128906 2.9375 -4.320312 2.75 -4.4375 C 2.570312 -4.550781 2.34375 -4.609375 2.0625 -4.609375 L 1.6875 -4.609375 Z M 1.6875 -3.109375 "/></g></g></g><g fill="#ffffff" fill-opacity="1"><g transform="translate(64.674787, 6.276959)"><g><path d="M 0.40625 -5.640625 L 2.421875 -5.640625 C 2.960938 -5.640625 3.40625 -5.492188 3.75 -5.203125 C 4.09375 -4.910156 4.265625 -4.492188 4.265625 -3.953125 C 4.265625 -3.546875 4.160156 -3.203125 3.953125 -2.921875 C 3.742188 -2.640625 3.460938 -2.441406 3.109375 -2.328125 L 5.046875 0 L 3.40625 0 L 1.6875 -2.21875 L 1.6875 0 L 0.40625 0 Z M 1.6875 -3.140625 L 1.84375 -3.140625 C 1.957031 -3.140625 2.054688 -3.140625 2.140625 -3.140625 C 2.222656 -3.140625 2.316406 -3.15625 2.421875 -3.1875 C 2.523438 -3.21875 2.609375 -3.253906 2.671875 -3.296875 C 2.734375 -3.347656 2.785156 -3.421875 2.828125 -3.515625 C 2.878906 -3.617188 2.90625 -3.738281 2.90625 -3.875 C 2.90625 -4.007812 2.878906 -4.125 2.828125 -4.21875 C 2.785156 -4.3125 2.734375 -4.382812 2.671875 -4.4375 C 2.609375 -4.488281 2.523438 -4.523438 2.421875 -4.546875 C 2.316406 -4.578125 2.222656 -4.59375 2.140625 -4.59375 C 2.054688 -4.601562 1.957031 -4.609375 1.84375 -4.609375 L 1.6875 -4.609375 Z M 1.6875 -3.140625 "/></g></g></g><g fill="#ffffff" fill-opacity="1"><g transform="translate(70.248459, 6.276959)"><g><path d="M 0.15625 -2.8125 C 0.15625 -3.632812 0.429688 -4.328125 0.984375 -4.890625 C 1.546875 -5.453125 2.21875 -5.734375 3 -5.734375 C 3.78125 -5.734375 4.445312 -5.453125 5 -4.890625 C 5.550781 -4.328125 5.828125 -3.632812 5.828125 -2.8125 C 5.828125 -1.988281 5.554688 -1.296875 5.015625 -0.734375 C 4.472656 -0.171875 3.800781 0.109375 3 0.109375 C 2.175781 0.109375 1.492188 -0.171875 0.953125 -0.734375 C 0.421875 -1.296875 0.15625 -1.988281 0.15625 -2.8125 Z M 1.546875 -2.8125 C 1.546875 -2.519531 1.585938 -2.25 1.671875 -2 C 1.765625 -1.757812 1.925781 -1.554688 2.15625 -1.390625 C 2.382812 -1.222656 2.664062 -1.140625 3 -1.140625 C 3.476562 -1.140625 3.835938 -1.300781 4.078125 -1.625 C 4.316406 -1.957031 4.4375 -2.351562 4.4375 -2.8125 C 4.4375 -3.28125 4.3125 -3.675781 4.0625 -4 C 3.820312 -4.332031 3.46875 -4.5 3 -4.5 C 2.53125 -4.5 2.171875 -4.332031 1.921875 -4 C 1.671875 -3.675781 1.546875 -3.28125 1.546875 -2.8125 Z M 1.546875 -2.8125 "/></g></g></g><g fill="#ffffff" fill-opacity="1"><g transform="translate(76.921785, 6.276959)"><g><path d="M 0.40625 -5.640625 L 2.15625 -5.640625 C 2.6875 -5.640625 3.109375 -5.523438 3.421875 -5.296875 C 3.734375 -5.066406 3.890625 -4.703125 3.890625 -4.203125 C 3.890625 -3.640625 3.65625 -3.234375 3.1875 -2.984375 C 3.988281 -2.847656 4.390625 -2.378906 4.390625 -1.578125 C 4.390625 -1.097656 4.222656 -0.710938 3.890625 -0.421875 C 3.566406 -0.140625 3.117188 0 2.546875 0 L 0.40625 0 Z M 1.6875 -3.421875 L 1.796875 -3.421875 C 2.078125 -3.421875 2.289062 -3.472656 2.4375 -3.578125 C 2.582031 -3.679688 2.65625 -3.84375 2.65625 -4.0625 C 2.65625 -4.445312 2.367188 -4.640625 1.796875 -4.640625 L 1.6875 -4.640625 Z M 1.6875 -0.984375 L 2.09375 -0.984375 C 2.71875 -0.984375 3.03125 -1.195312 3.03125 -1.625 C 3.03125 -1.875 2.953125 -2.050781 2.796875 -2.15625 C 2.640625 -2.269531 2.40625 -2.328125 2.09375 -2.328125 L 1.6875 -2.328125 Z M 1.6875 -0.984375 "/></g></g></g><g fill="#ffffff" fill-opacity="1"><g transform="translate(82.153949, 6.276959)"><g><path d="M 1.6875 -5.640625 L 1.6875 -1.125 L 3.625 -1.125 L 3.625 0 L 0.40625 0 L 0.40625 -5.640625 Z M 1.6875 -5.640625 "/></g></g></g><g fill="#ffffff" fill-opacity="1"><g transform="translate(86.696268, 6.276959)"><g><path d="M 3.625 -5.640625 L 3.625 -4.5 L 1.6875 -4.5 L 1.6875 -3.390625 L 3.546875 -3.390625 L 3.546875 -2.265625 L 1.6875 -2.265625 L 1.6875 -1.125 L 3.625 -1.125 L 3.625 0 L 0.40625 0 L 0.40625 -5.640625 Z M 3.625 -5.640625 "/></g></g></g><g fill="#ffffff" fill-opacity="1"><g transform="translate(91.341041, 6.276959)"><g><path d="M 5.0625 0 L 4.796875 -3.34375 L 4.765625 -3.34375 L 3.609375 -0.03125 L 2.84375 -0.03125 L 1.6875 -3.34375 L 1.65625 -3.34375 L 1.390625 0 L 0.109375 0 L 0.609375 -5.640625 L 1.984375 -5.640625 L 3.234375 -2.390625 L 4.484375 -5.640625 L 5.84375 -5.640625 L 6.34375 0 Z M 5.0625 0 "/></g></g></g><g fill="#ffffff" fill-opacity="1"><g transform="translate(98.485649, 6.276959)"><g><path d="M 3.265625 -5.640625 L 5.546875 0 L 4.171875 0 L 3.75 -1.125 L 1.609375 -1.125 L 1.1875 0 L -0.1875 0 L 2.078125 -5.640625 Z M 3.3125 -2.25 L 2.6875 -3.890625 L 2.671875 -3.890625 L 2.046875 -2.25 Z M 3.3125 -2.25 "/></g></g></g><g fill="#ffffff" fill-opacity="1"><g transform="translate(104.523771, 6.276959)"><g/></g></g><g fill="#ffffff" fill-opacity="1"><g transform="translate(107.071691, 6.276959)"><g><path d="M 0.40625 -5.640625 L 2.46875 -5.640625 C 3.039062 -5.640625 3.503906 -5.488281 3.859375 -5.1875 C 4.210938 -4.894531 4.390625 -4.460938 4.390625 -3.890625 C 4.390625 -3.328125 4.207031 -2.882812 3.84375 -2.5625 C 3.488281 -2.25 3.03125 -2.09375 2.46875 -2.09375 L 1.6875 -2.09375 L 1.6875 0 L 0.40625 0 Z M 1.6875 -3.109375 L 2.0625 -3.109375 C 2.34375 -3.109375 2.570312 -3.164062 2.75 -3.28125 C 2.9375 -3.40625 3.03125 -3.597656 3.03125 -3.859375 C 3.03125 -4.128906 2.9375 -4.320312 2.75 -4.4375 C 2.570312 -4.550781 2.34375 -4.609375 2.0625 -4.609375 L 1.6875 -4.609375 Z M 1.6875 -3.109375 "/></g></g></g><g fill="#ffffff" fill-opacity="1"><g transform="translate(112.303849, 6.276959)"><g><path d="M 3.265625 -5.640625 L 5.546875 0 L 4.171875 0 L 3.75 -1.125 L 1.609375 -1.125 L 1.1875 0 L -0.1875 0 L 2.078125 -5.640625 Z M 3.3125 -2.25 L 2.6875 -3.890625 L 2.671875 -3.890625 L 2.046875 -2.25 Z M 3.3125 -2.25 "/></g></g></g><g fill="#ffffff" fill-opacity="1"><g transform="translate(118.341982, 6.276959)"><g><path d="M 0.40625 -5.640625 L 2.421875 -5.640625 C 2.960938 -5.640625 3.40625 -5.492188 3.75 -5.203125 C 4.09375 -4.910156 4.265625 -4.492188 4.265625 -3.953125 C 4.265625 -3.546875 4.160156 -3.203125 3.953125 -2.921875 C 3.742188 -2.640625 3.460938 -2.441406 3.109375 -2.328125 L 5.046875 0 L 3.40625 0 L 1.6875 -2.21875 L 1.6875 0 L 0.40625 0 Z M 1.6875 -3.140625 L 1.84375 -3.140625 C 1.957031 -3.140625 2.054688 -3.140625 2.140625 -3.140625 C 2.222656 -3.140625 2.316406 -3.15625 2.421875 -3.1875 C 2.523438 -3.21875 2.609375 -3.253906 2.671875 -3.296875 C 2.734375 -3.347656 2.785156 -3.421875 2.828125 -3.515625 C 2.878906 -3.617188 2.90625 -3.738281 2.90625 -3.875 C 2.90625 -4.007812 2.878906 -4.125 2.828125 -4.21875 C 2.785156 -4.3125 2.734375 -4.382812 2.671875 -4.4375 C 2.609375 -4.488281 2.523438 -4.523438 2.421875 -4.546875 C 2.316406 -4.578125 2.222656 -4.59375 2.140625 -4.59375 C 2.054688 -4.601562 1.957031 -4.609375 1.84375 -4.609375 L 1.6875 -4.609375 Z M 1.6875 -3.140625 "/></g></g></g><g fill="#ffffff" fill-opacity="1"><g transform="translate(123.915648, 6.276959)"><g><path d="M 3.265625 -5.640625 L 5.546875 0 L 4.171875 0 L 3.75 -1.125 L 1.609375 -1.125 L 1.1875 0 L -0.1875 0 L 2.078125 -5.640625 Z M 3.3125 -2.25 L 2.6875 -3.890625 L 2.671875 -3.890625 L 2.046875 -2.25 Z M 3.3125 -2.25 "/></g></g></g><g fill="#ffffff" fill-opacity="1"><g transform="translate(129.95377, 6.276959)"><g/></g></g><g fill="#ffffff" fill-opacity="1"><g transform="translate(132.50169, 6.276959)"><g><path d="M 3.671875 -5.640625 L 3.671875 -4.5 L 1.6875 -4.5 L 1.6875 -3.390625 L 3.515625 -3.390625 L 3.515625 -2.265625 L 1.6875 -2.265625 L 1.6875 0 L 0.40625 0 L 0.40625 -5.640625 Z M 3.671875 -5.640625 "/></g></g></g><g fill="#ffffff" fill-opacity="1"><g transform="translate(137.057664, 6.276959)"><g><path d="M 0.40625 -5.640625 L 2.421875 -5.640625 C 2.960938 -5.640625 3.40625 -5.492188 3.75 -5.203125 C 4.09375 -4.910156 4.265625 -4.492188 4.265625 -3.953125 C 4.265625 -3.546875 4.160156 -3.203125 3.953125 -2.921875 C 3.742188 -2.640625 3.460938 -2.441406 3.109375 -2.328125 L 5.046875 0 L 3.40625 0 L 1.6875 -2.21875 L 1.6875 0 L 0.40625 0 Z M 1.6875 -3.140625 L 1.84375 -3.140625 C 1.957031 -3.140625 2.054688 -3.140625 2.140625 -3.140625 C 2.222656 -3.140625 2.316406 -3.15625 2.421875 -3.1875 C 2.523438 -3.21875 2.609375 -3.253906 2.671875 -3.296875 C 2.734375 -3.347656 2.785156 -3.421875 2.828125 -3.515625 C 2.878906 -3.617188 2.90625 -3.738281 2.90625 -3.875 C 2.90625 -4.007812 2.878906 -4.125 2.828125 -4.21875 C 2.785156 -4.3125 2.734375 -4.382812 2.671875 -4.4375 C 2.609375 -4.488281 2.523438 -4.523438 2.421875 -4.546875 C 2.316406 -4.578125 2.222656 -4.59375 2.140625 -4.59375 C 2.054688 -4.601562 1.957031 -4.609375 1.84375 -4.609375 L 1.6875 -4.609375 Z M 1.6875 -3.140625 "/></g></g></g><g fill="#ffffff" fill-opacity="1"><g transform="translate(142.631341, 6.276959)"><g><path d="M 3.265625 -5.640625 L 5.546875 0 L 4.171875 0 L 3.75 -1.125 L 1.609375 -1.125 L 1.1875 0 L -0.1875 0 L 2.078125 -5.640625 Z M 3.3125 -2.25 L 2.6875 -3.890625 L 2.671875 -3.890625 L 2.046875 -2.25 Z M 3.3125 -2.25 "/></g></g></g><g fill="#ffffff" fill-opacity="1"><g transform="translate(148.669463, 6.276959)"><g><path d="M 1.6875 -3.5 L 1.6875 0 L 0.40625 0 L 0.40625 -5.640625 L 1.6875 -5.640625 L 3.9375 -2.140625 L 3.953125 -2.140625 L 3.953125 -5.640625 L 5.234375 -5.640625 L 5.234375 0 L 3.953125 0 L 1.703125 -3.5 Z M 1.6875 -3.5 "/></g></g></g><g fill="#ffffff" fill-opacity="1"><g transform="translate(154.994453, 6.276959)"><g><path d="M 5.53125 0 L 3.765625 0 L 1.6875 -2.390625 L 1.6875 0 L 0.40625 0 L 0.40625 -5.640625 L 1.6875 -5.640625 L 1.6875 -3.328125 L 3.625 -5.640625 L 5.1875 -5.640625 L 2.921875 -2.96875 Z M 5.53125 0 "/></g></g></g></g></g></g></g></g></g></svg>