<svg xmlns="http://www.w3.org/2000/svg" xmlns:xlink="http://www.w3.org/1999/xlink" width="1366" zoomAndPan="magnify" viewBox="0 0 1024.5 576" height="768" preserveAspectRatio="xMidYMid meet" version="1.0"><defs><clipPath id="50ff27f7f9"><path d="M 16.21875 14.90625 L 57.570312 14.90625 L 57.570312 57.390625 L 16.21875 57.390625 Z M 16.21875 14.90625 " clip-rule="nonzero"/></clipPath><clipPath id="c1df07dfd4"><path d="M 36.894531 14.90625 L 37.734375 32.351562 L 46.070312 16.972656 L 39.285156 33.128906 L 53.5 22.917969 L 40.386719 34.417969 L 57.570312 31.382812 L 40.773438 36.101562 L 57.570312 40.816406 L 40.386719 37.78125 L 53.5 49.34375 L 39.285156 39.136719 L 46.070312 55.226562 L 37.734375 39.847656 L 36.894531 57.292969 L 36.054688 39.847656 L 27.722656 55.226562 L 34.503906 39.136719 L 20.289062 49.34375 L 33.40625 37.78125 L 16.21875 40.816406 L 33.019531 36.101562 L 16.21875 31.382812 L 33.40625 34.417969 L 20.289062 22.917969 L 34.503906 33.128906 L 27.722656 16.972656 L 36.054688 32.351562 Z M 36.894531 14.90625 " clip-rule="nonzero"/></clipPath><clipPath id="6fcfecc336"><path d="M 0.21875 0.90625 L 41.570312 0.90625 L 41.570312 43.390625 L 0.21875 43.390625 Z M 0.21875 0.90625 " clip-rule="nonzero"/></clipPath><clipPath id="1ee39e7be1"><path d="M 20.894531 0.90625 L 21.734375 18.351562 L 30.070312 2.972656 L 23.285156 19.128906 L 37.5 8.917969 L 24.386719 20.417969 L 41.570312 17.382812 L 24.773438 22.101562 L 41.570312 26.816406 L 24.386719 23.78125 L 37.5 35.34375 L 23.285156 25.136719 L 30.070312 41.226562 L 21.734375 25.847656 L 20.894531 43.292969 L 20.054688 25.847656 L 11.722656 41.226562 L 18.503906 25.136719 L 4.289062 35.34375 L 17.40625 23.78125 L 0.21875 26.816406 L 17.019531 22.101562 L 0.21875 17.382812 L 17.40625 20.417969 L 4.289062 8.917969 L 18.503906 19.128906 L 11.722656 2.972656 L 20.054688 18.351562 Z M 20.894531 0.90625 " clip-rule="nonzero"/></clipPath><clipPath id="751ba0fc1c"><rect x="0" width="42" y="0" height="44"/></clipPath></defs><g clip-path="url(#50ff27f7f9)"><g clip-path="url(#c1df07dfd4)"><g transform="matrix(1, 0, 0, 1, 16, 14)"><g clip-path="url(#751ba0fc1c)"><g clip-path="url(#6fcfecc336)"><g clip-path="url(#1ee39e7be1)"><path fill="#8c52ff" d="M 0.21875 0.90625 L 41.570312 0.90625 L 41.570312 43.390625 L 0.21875 43.390625 Z M 0.21875 0.90625 " fill-opacity="1" fill-rule="nonzero"/></g></g></g></g></g></g></svg>