<svg xmlns="http://www.w3.org/2000/svg" xmlns:xlink="http://www.w3.org/1999/xlink" width="1366" zoomAndPan="magnify" viewBox="0 0 1024.5 576" height="768" preserveAspectRatio="xMidYMid meet" version="1.0"><defs><g/><clipPath id="ecfa9e235e"><path d="M 0.441406 2 L 4 2 L 4 10 L 0.441406 10 Z M 0.441406 2 " clip-rule="nonzero"/></clipPath><clipPath id="99ddd8cc95"><rect x="0" width="79" y="0" height="12"/></clipPath></defs><g fill="#8c52ff" fill-opacity="1"><g transform="translate(389.191703, 282.022934)"><g><path d="M 7.25 -1.703125 C 6.945312 -1.085938 6.550781 -0.613281 6.0625 -0.28125 C 5.582031 0.0390625 5.03125 0.203125 4.40625 0.203125 C 3.164062 0.203125 2.234375 -0.390625 1.609375 -1.578125 C 0.984375 -2.773438 0.671875 -4.625 0.671875 -7.125 C 0.671875 -11.976562 1.984375 -14.40625 4.609375 -14.40625 C 5.046875 -14.40625 5.519531 -14.242188 6.03125 -13.921875 C 6.539062 -13.597656 6.945312 -13.125 7.25 -12.5 L 6.3125 -11.84375 C 5.976562 -12.457031 5.640625 -12.84375 5.296875 -13 C 4.960938 -13.164062 4.664062 -13.25 4.40625 -13.25 C 3.863281 -13.25 3.429688 -13.066406 3.109375 -12.703125 C 2.785156 -12.335938 2.539062 -11.863281 2.375 -11.28125 C 2.207031 -10.707031 2.09375 -10.078125 2.03125 -9.390625 C 1.96875 -8.710938 1.9375 -8.054688 1.9375 -7.421875 C 1.9375 -6.710938 1.96875 -5.976562 2.03125 -5.21875 C 2.09375 -4.46875 2.207031 -3.773438 2.375 -3.140625 C 2.550781 -2.503906 2.804688 -1.984375 3.140625 -1.578125 C 3.484375 -1.179688 3.9375 -0.984375 4.5 -0.984375 C 4.957031 -0.984375 5.3125 -1.101562 5.5625 -1.34375 C 5.8125 -1.582031 6.035156 -1.890625 6.234375 -2.265625 Z M 7.25 -1.703125 "/></g></g></g><g fill="#8c52ff" fill-opacity="1"><g transform="translate(398.76411, 282.022934)"><g><path d="M 4.421875 0.203125 C 3.191406 0.203125 2.265625 -0.382812 1.640625 -1.5625 C 1.015625 -2.738281 0.703125 -4.585938 0.703125 -7.109375 C 0.703125 -9.640625 1.015625 -11.488281 1.640625 -12.65625 C 2.265625 -13.820312 3.191406 -14.40625 4.421875 -14.40625 C 5.660156 -14.40625 6.585938 -13.820312 7.203125 -12.65625 C 7.828125 -11.488281 8.140625 -9.640625 8.140625 -7.109375 C 8.140625 -4.585938 7.828125 -2.738281 7.203125 -1.5625 C 6.585938 -0.382812 5.660156 0.203125 4.421875 0.203125 Z M 4.421875 -0.96875 C 4.960938 -0.96875 5.394531 -1.164062 5.71875 -1.5625 C 6.039062 -1.957031 6.285156 -2.46875 6.453125 -3.09375 C 6.617188 -3.71875 6.734375 -4.382812 6.796875 -5.09375 C 6.859375 -5.8125 6.890625 -6.484375 6.890625 -7.109375 C 6.890625 -7.742188 6.859375 -8.410156 6.796875 -9.109375 C 6.734375 -9.816406 6.617188 -10.484375 6.453125 -11.109375 C 6.285156 -11.734375 6.039062 -12.242188 5.71875 -12.640625 C 5.394531 -13.046875 4.960938 -13.25 4.421875 -13.25 C 3.878906 -13.25 3.445312 -13.046875 3.125 -12.640625 C 2.800781 -12.242188 2.554688 -11.734375 2.390625 -11.109375 C 2.222656 -10.484375 2.109375 -9.816406 2.046875 -9.109375 C 1.984375 -8.410156 1.953125 -7.742188 1.953125 -7.109375 C 1.953125 -6.484375 1.984375 -5.8125 2.046875 -5.09375 C 2.109375 -4.382812 2.222656 -3.71875 2.390625 -3.09375 C 2.554688 -2.46875 2.800781 -1.957031 3.125 -1.5625 C 3.445312 -1.164062 3.878906 -0.96875 4.421875 -0.96875 Z M 4.421875 -0.96875 "/></g></g></g><g fill="#8c52ff" fill-opacity="1"><g transform="translate(409.628886, 282.022934)"><g><path d="M 10.171875 -14.125 L 10.171875 0 L 8.9375 0 L 8.9375 -12.1875 L 5.859375 -7.75 L 2.78125 -12.171875 L 2.78125 0 L 1.546875 0 L 1.546875 -14.125 L 2.890625 -14.125 L 5.890625 -9.828125 L 8.90625 -14.125 Z M 10.171875 -14.125 "/></g></g></g><g fill="#8c52ff" fill-opacity="1"><g transform="translate(423.401492, 282.022934)"><g><path d="M 4.421875 0.203125 C 3.191406 0.203125 2.265625 -0.382812 1.640625 -1.5625 C 1.015625 -2.738281 0.703125 -4.585938 0.703125 -7.109375 C 0.703125 -9.640625 1.015625 -11.488281 1.640625 -12.65625 C 2.265625 -13.820312 3.191406 -14.40625 4.421875 -14.40625 C 5.660156 -14.40625 6.585938 -13.820312 7.203125 -12.65625 C 7.828125 -11.488281 8.140625 -9.640625 8.140625 -7.109375 C 8.140625 -4.585938 7.828125 -2.738281 7.203125 -1.5625 C 6.585938 -0.382812 5.660156 0.203125 4.421875 0.203125 Z M 4.421875 -0.96875 C 4.960938 -0.96875 5.394531 -1.164062 5.71875 -1.5625 C 6.039062 -1.957031 6.285156 -2.46875 6.453125 -3.09375 C 6.617188 -3.71875 6.734375 -4.382812 6.796875 -5.09375 C 6.859375 -5.8125 6.890625 -6.484375 6.890625 -7.109375 C 6.890625 -7.742188 6.859375 -8.410156 6.796875 -9.109375 C 6.734375 -9.816406 6.617188 -10.484375 6.453125 -11.109375 C 6.285156 -11.734375 6.039062 -12.242188 5.71875 -12.640625 C 5.394531 -13.046875 4.960938 -13.25 4.421875 -13.25 C 3.878906 -13.25 3.445312 -13.046875 3.125 -12.640625 C 2.800781 -12.242188 2.554688 -11.734375 2.390625 -11.109375 C 2.222656 -10.484375 2.109375 -9.816406 2.046875 -9.109375 C 1.984375 -8.410156 1.953125 -7.742188 1.953125 -7.109375 C 1.953125 -6.484375 1.984375 -5.8125 2.046875 -5.09375 C 2.109375 -4.382812 2.222656 -3.71875 2.390625 -3.09375 C 2.554688 -2.46875 2.800781 -1.957031 3.125 -1.5625 C 3.445312 -1.164062 3.878906 -0.96875 4.421875 -0.96875 Z M 4.421875 -0.96875 "/></g></g></g><g fill="#8c52ff" fill-opacity="1"><g transform="translate(434.266268, 282.022934)"><g/></g></g><g fill="#8c52ff" fill-opacity="1"><g transform="translate(439.315386, 282.022934)"><g><path d="M 7.453125 -12.078125 C 7.453125 -11.679688 7.394531 -11.332031 7.28125 -11.03125 C 7.175781 -10.738281 7.003906 -10.429688 6.765625 -10.109375 C 6.535156 -9.785156 6.222656 -9.382812 5.828125 -8.90625 L 2.78125 -5.203125 L 2.78125 0 L 1.546875 0 L 1.546875 -14.125 L 4.796875 -14.125 C 5.703125 -14.125 6.367188 -13.9375 6.796875 -13.5625 C 7.234375 -13.195312 7.453125 -12.703125 7.453125 -12.078125 Z M 5.109375 -9.6875 C 5.398438 -10.050781 5.617188 -10.347656 5.765625 -10.578125 C 5.921875 -10.816406 6.023438 -11.035156 6.078125 -11.234375 C 6.140625 -11.441406 6.171875 -11.664062 6.171875 -11.90625 C 6.171875 -12.601562 5.722656 -12.953125 4.828125 -12.953125 L 2.78125 -12.953125 L 2.78125 -6.859375 Z M 5.109375 -9.6875 "/></g></g></g><g fill="#8c52ff" fill-opacity="1"><g transform="translate(449.130118, 282.022934)"><g><path d="M 4.421875 0.203125 C 3.191406 0.203125 2.265625 -0.382812 1.640625 -1.5625 C 1.015625 -2.738281 0.703125 -4.585938 0.703125 -7.109375 C 0.703125 -9.640625 1.015625 -11.488281 1.640625 -12.65625 C 2.265625 -13.820312 3.191406 -14.40625 4.421875 -14.40625 C 5.660156 -14.40625 6.585938 -13.820312 7.203125 -12.65625 C 7.828125 -11.488281 8.140625 -9.640625 8.140625 -7.109375 C 8.140625 -4.585938 7.828125 -2.738281 7.203125 -1.5625 C 6.585938 -0.382812 5.660156 0.203125 4.421875 0.203125 Z M 4.421875 -0.96875 C 4.960938 -0.96875 5.394531 -1.164062 5.71875 -1.5625 C 6.039062 -1.957031 6.285156 -2.46875 6.453125 -3.09375 C 6.617188 -3.71875 6.734375 -4.382812 6.796875 -5.09375 C 6.859375 -5.8125 6.890625 -6.484375 6.890625 -7.109375 C 6.890625 -7.742188 6.859375 -8.410156 6.796875 -9.109375 C 6.734375 -9.816406 6.617188 -10.484375 6.453125 -11.109375 C 6.285156 -11.734375 6.039062 -12.242188 5.71875 -12.640625 C 5.394531 -13.046875 4.960938 -13.25 4.421875 -13.25 C 3.878906 -13.25 3.445312 -13.046875 3.125 -12.640625 C 2.800781 -12.242188 2.554688 -11.734375 2.390625 -11.109375 C 2.222656 -10.484375 2.109375 -9.816406 2.046875 -9.109375 C 1.984375 -8.410156 1.953125 -7.742188 1.953125 -7.109375 C 1.953125 -6.484375 1.984375 -5.8125 2.046875 -5.09375 C 2.109375 -4.382812 2.222656 -3.71875 2.390625 -3.09375 C 2.554688 -2.46875 2.800781 -1.957031 3.125 -1.5625 C 3.445312 -1.164062 3.878906 -0.96875 4.421875 -0.96875 Z M 4.421875 -0.96875 "/></g></g></g><g fill="#8c52ff" fill-opacity="1"><g transform="translate(459.994894, 282.022934)"><g><path d="M 4.234375 -8.109375 C 4.679688 -7.671875 5.078125 -7.234375 5.421875 -6.796875 C 5.773438 -6.359375 6.054688 -5.882812 6.265625 -5.375 C 6.472656 -4.875 6.578125 -4.296875 6.578125 -3.640625 C 6.578125 -2.492188 6.28125 -1.566406 5.6875 -0.859375 C 5.09375 -0.148438 4.320312 0.203125 3.375 0.203125 C 2.675781 0.203125 2.097656 0.0546875 1.640625 -0.234375 C 1.179688 -0.535156 0.734375 -1.003906 0.296875 -1.640625 L 1.390625 -2.234375 C 1.742188 -1.765625 2.066406 -1.445312 2.359375 -1.28125 C 2.660156 -1.125 3.019531 -1.046875 3.4375 -1.046875 C 3.863281 -1.046875 4.203125 -1.128906 4.453125 -1.296875 C 4.703125 -1.460938 4.890625 -1.675781 5.015625 -1.9375 C 5.140625 -2.207031 5.222656 -2.476562 5.265625 -2.75 C 5.304688 -3.03125 5.328125 -3.28125 5.328125 -3.5 C 5.328125 -3.976562 5.265625 -4.398438 5.140625 -4.765625 C 5.015625 -5.140625 4.8125 -5.507812 4.53125 -5.875 C 4.257812 -6.238281 3.894531 -6.632812 3.4375 -7.0625 C 2.757812 -7.726562 2.191406 -8.398438 1.734375 -9.078125 C 1.285156 -9.753906 1.054688 -10.570312 1.046875 -11.53125 C 1.035156 -12.425781 1.269531 -13.128906 1.75 -13.640625 C 2.226562 -14.148438 2.796875 -14.40625 3.453125 -14.40625 C 4.023438 -14.40625 4.5 -14.257812 4.875 -13.96875 C 5.257812 -13.675781 5.59375 -13.207031 5.875 -12.5625 L 4.703125 -12.078125 C 4.503906 -12.492188 4.316406 -12.773438 4.140625 -12.921875 C 3.960938 -13.078125 3.734375 -13.15625 3.453125 -13.15625 C 3.078125 -13.15625 2.785156 -13.007812 2.578125 -12.71875 C 2.378906 -12.4375 2.285156 -12.046875 2.296875 -11.546875 C 2.316406 -10.847656 2.507812 -10.234375 2.875 -9.703125 C 3.25 -9.179688 3.703125 -8.648438 4.234375 -8.109375 Z M 4.234375 -8.109375 "/></g></g></g><g fill="#8c52ff" fill-opacity="1"><g transform="translate(468.981696, 282.022934)"><g><path d="M 4.234375 -8.109375 C 4.679688 -7.671875 5.078125 -7.234375 5.421875 -6.796875 C 5.773438 -6.359375 6.054688 -5.882812 6.265625 -5.375 C 6.472656 -4.875 6.578125 -4.296875 6.578125 -3.640625 C 6.578125 -2.492188 6.28125 -1.566406 5.6875 -0.859375 C 5.09375 -0.148438 4.320312 0.203125 3.375 0.203125 C 2.675781 0.203125 2.097656 0.0546875 1.640625 -0.234375 C 1.179688 -0.535156 0.734375 -1.003906 0.296875 -1.640625 L 1.390625 -2.234375 C 1.742188 -1.765625 2.066406 -1.445312 2.359375 -1.28125 C 2.660156 -1.125 3.019531 -1.046875 3.4375 -1.046875 C 3.863281 -1.046875 4.203125 -1.128906 4.453125 -1.296875 C 4.703125 -1.460938 4.890625 -1.675781 5.015625 -1.9375 C 5.140625 -2.207031 5.222656 -2.476562 5.265625 -2.75 C 5.304688 -3.03125 5.328125 -3.28125 5.328125 -3.5 C 5.328125 -3.976562 5.265625 -4.398438 5.140625 -4.765625 C 5.015625 -5.140625 4.8125 -5.507812 4.53125 -5.875 C 4.257812 -6.238281 3.894531 -6.632812 3.4375 -7.0625 C 2.757812 -7.726562 2.191406 -8.398438 1.734375 -9.078125 C 1.285156 -9.753906 1.054688 -10.570312 1.046875 -11.53125 C 1.035156 -12.425781 1.269531 -13.128906 1.75 -13.640625 C 2.226562 -14.148438 2.796875 -14.40625 3.453125 -14.40625 C 4.023438 -14.40625 4.5 -14.257812 4.875 -13.96875 C 5.257812 -13.675781 5.59375 -13.207031 5.875 -12.5625 L 4.703125 -12.078125 C 4.503906 -12.492188 4.316406 -12.773438 4.140625 -12.921875 C 3.960938 -13.078125 3.734375 -13.15625 3.453125 -13.15625 C 3.078125 -13.15625 2.785156 -13.007812 2.578125 -12.71875 C 2.378906 -12.4375 2.285156 -12.046875 2.296875 -11.546875 C 2.316406 -10.847656 2.507812 -10.234375 2.875 -9.703125 C 3.25 -9.179688 3.703125 -8.648438 4.234375 -8.109375 Z M 4.234375 -8.109375 "/></g></g></g><g fill="#8c52ff" fill-opacity="1"><g transform="translate(477.968498, 282.022934)"><g><path d="M 4.421875 0.203125 C 3.191406 0.203125 2.265625 -0.382812 1.640625 -1.5625 C 1.015625 -2.738281 0.703125 -4.585938 0.703125 -7.109375 C 0.703125 -9.640625 1.015625 -11.488281 1.640625 -12.65625 C 2.265625 -13.820312 3.191406 -14.40625 4.421875 -14.40625 C 5.660156 -14.40625 6.585938 -13.820312 7.203125 -12.65625 C 7.828125 -11.488281 8.140625 -9.640625 8.140625 -7.109375 C 8.140625 -4.585938 7.828125 -2.738281 7.203125 -1.5625 C 6.585938 -0.382812 5.660156 0.203125 4.421875 0.203125 Z M 4.421875 -0.96875 C 4.960938 -0.96875 5.394531 -1.164062 5.71875 -1.5625 C 6.039062 -1.957031 6.285156 -2.46875 6.453125 -3.09375 C 6.617188 -3.71875 6.734375 -4.382812 6.796875 -5.09375 C 6.859375 -5.8125 6.890625 -6.484375 6.890625 -7.109375 C 6.890625 -7.742188 6.859375 -8.410156 6.796875 -9.109375 C 6.734375 -9.816406 6.617188 -10.484375 6.453125 -11.109375 C 6.285156 -11.734375 6.039062 -12.242188 5.71875 -12.640625 C 5.394531 -13.046875 4.960938 -13.25 4.421875 -13.25 C 3.878906 -13.25 3.445312 -13.046875 3.125 -12.640625 C 2.800781 -12.242188 2.554688 -11.734375 2.390625 -11.109375 C 2.222656 -10.484375 2.109375 -9.816406 2.046875 -9.109375 C 1.984375 -8.410156 1.953125 -7.742188 1.953125 -7.109375 C 1.953125 -6.484375 1.984375 -5.8125 2.046875 -5.09375 C 2.109375 -4.382812 2.222656 -3.71875 2.390625 -3.09375 C 2.554688 -2.46875 2.800781 -1.957031 3.125 -1.5625 C 3.445312 -1.164062 3.878906 -0.96875 4.421875 -0.96875 Z M 4.421875 -0.96875 "/></g></g></g><g fill="#8c52ff" fill-opacity="1"><g transform="translate(488.833274, 282.022934)"><g/></g></g><g fill="#8c52ff" fill-opacity="1"><g transform="translate(493.882392, 282.022934)"><g><path d="M 2.78125 -1.1875 L 6.234375 -1.1875 L 6.234375 0 L 1.546875 0 L 1.546875 -14.125 L 2.78125 -14.125 Z M 2.78125 -1.1875 "/></g></g></g><g fill="#8c52ff" fill-opacity="1"><g transform="translate(502.485523, 282.022934)"><g><path d="M 5.625 -9.515625 L 2.78125 -9.515625 L 2.78125 0 L 1.546875 0 L 1.546875 -14.125 L 2.78125 -14.125 L 2.78125 -10.59375 L 5.625 -10.59375 L 5.625 -14.125 L 6.859375 -14.125 L 6.859375 0 L 5.625 0 Z M 5.625 -9.515625 "/></g></g></g><g fill="#8c52ff" fill-opacity="1"><g transform="translate(512.94644, 282.022934)"><g><path d="M 1.546875 -14.125 L 5.890625 -14.125 L 5.890625 -12.953125 L 2.78125 -12.953125 L 2.78125 -10.515625 L 4.703125 -10.515625 L 4.703125 -9.421875 L 2.78125 -9.421875 L 2.78125 -1.1875 L 5.890625 -1.1875 L 5.890625 0 L 1.546875 0 Z M 1.546875 -14.125 "/></g></g></g><g fill="#8c52ff" fill-opacity="1"><g transform="translate(521.468804, 282.022934)"><g/></g></g><g fill="#8c52ff" fill-opacity="1"><g transform="translate(526.517922, 282.022934)"><g><path d="M 6.4375 -2.203125 L 3.09375 -5.859375 L 1.953125 0 L 0.765625 0 L 3.609375 -14.125 L 5.109375 -14.125 L 8.109375 0 L 6.890625 0 Z M 6.015625 -4.3125 L 4.359375 -12.328125 L 3.375 -7.203125 Z M 6.015625 -4.3125 "/></g></g></g><g fill="#8c52ff" fill-opacity="1"><g transform="translate(537.382698, 282.022934)"><g><path d="M 2.828125 -2.46875 C 2.828125 -1.507812 2.78125 -0.675781 2.6875 0.03125 C 2.59375 0.738281 2.382812 1.328125 2.0625 1.796875 C 1.738281 2.265625 1.238281 2.648438 0.5625 2.953125 L 0.0625 1.859375 C 0.382812 1.691406 0.644531 1.515625 0.84375 1.328125 C 1.050781 1.140625 1.207031 0.894531 1.3125 0.59375 C 1.414062 0.300781 1.488281 -0.0859375 1.53125 -0.578125 C 1.570312 -1.066406 1.59375 -1.695312 1.59375 -2.46875 L 1.59375 -14.125 L 2.828125 -14.125 Z M 2.828125 -2.46875 "/></g></g></g><g fill="#8c52ff" fill-opacity="1"><g transform="translate(543.037622, 282.022934)"><g><path d="M 8.234375 -3.390625 C 8.234375 -2.316406 7.953125 -1.453125 7.390625 -0.796875 C 6.835938 -0.140625 5.988281 0.1875 4.84375 0.1875 C 3.738281 0.1875 2.890625 -0.109375 2.296875 -0.703125 C 1.703125 -1.304688 1.40625 -2.160156 1.40625 -3.265625 L 1.40625 -14.125 L 2.640625 -14.125 L 2.640625 -3.40625 C 2.640625 -2.507812 2.851562 -1.875 3.28125 -1.5 C 3.707031 -1.132812 4.269531 -0.953125 4.96875 -0.953125 C 5.5625 -0.953125 6.046875 -1.132812 6.421875 -1.5 C 6.804688 -1.875 7 -2.507812 7 -3.40625 L 7 -14.125 L 8.234375 -14.125 Z M 8.234375 -3.390625 "/></g></g></g><g fill="#8c52ff" fill-opacity="1"><g transform="translate(554.730329, 282.022934)"><g><path d="M 2.859375 -14.125 C 3.867188 -14.125 4.738281 -13.847656 5.46875 -13.296875 C 6.207031 -12.742188 6.773438 -11.957031 7.171875 -10.9375 C 7.566406 -9.914062 7.765625 -8.691406 7.765625 -7.265625 C 7.765625 -6.378906 7.675781 -5.503906 7.5 -4.640625 C 7.332031 -3.773438 7.050781 -2.992188 6.65625 -2.296875 C 6.269531 -1.597656 5.765625 -1.039062 5.140625 -0.625 C 4.515625 -0.207031 3.753906 0 2.859375 0 L 1.515625 0 L 1.515625 -14.125 Z M 6.5 -7.265625 C 6.5 -9.203125 6.160156 -10.628906 5.484375 -11.546875 C 4.816406 -12.472656 3.984375 -12.941406 2.984375 -12.953125 L 2.75 -12.953125 L 2.75 -1.1875 L 2.828125 -1.1875 C 4.066406 -1.207031 4.988281 -1.71875 5.59375 -2.71875 C 6.195312 -3.71875 6.5 -5.234375 6.5 -7.265625 Z M 6.5 -7.265625 "/></g></g></g><g fill="#8c52ff" fill-opacity="1"><g transform="translate(565.130667, 282.022934)"><g><path d="M 6.4375 -2.203125 L 3.09375 -5.859375 L 1.953125 0 L 0.765625 0 L 3.609375 -14.125 L 5.109375 -14.125 L 8.109375 0 L 6.890625 0 Z M 6.015625 -4.3125 L 4.359375 -12.328125 L 3.375 -7.203125 Z M 6.015625 -4.3125 "/></g></g></g><g fill="#8c52ff" fill-opacity="1"><g transform="translate(575.995443, 282.022934)"><g><path d="M 4.03125 -6.71875 L 2.78125 -5.203125 L 2.78125 0 L 1.546875 0 L 1.546875 -14.125 L 4.796875 -14.125 C 5.703125 -14.125 6.367188 -13.929688 6.796875 -13.546875 C 7.234375 -13.171875 7.453125 -12.644531 7.453125 -11.96875 C 7.453125 -11.625 7.394531 -11.304688 7.28125 -11.015625 C 7.175781 -10.722656 7.003906 -10.414062 6.765625 -10.09375 C 6.535156 -9.78125 6.222656 -9.382812 5.828125 -8.90625 L 4.921875 -7.796875 L 8.109375 -0.390625 L 7 0.1875 Z M 2.78125 -6.859375 L 5.109375 -9.6875 C 5.398438 -10.050781 5.617188 -10.347656 5.765625 -10.578125 C 5.921875 -10.816406 6.023438 -11.035156 6.078125 -11.234375 C 6.140625 -11.441406 6.171875 -11.664062 6.171875 -11.90625 C 6.171875 -12.601562 5.722656 -12.953125 4.828125 -12.953125 L 2.78125 -12.953125 Z M 2.78125 -6.859375 "/></g></g></g><g fill="#8c52ff" fill-opacity="1"><g transform="translate(586.698673, 282.022934)"><g/></g></g><g fill="#8c52ff" fill-opacity="1"><g transform="translate(591.747791, 282.022934)"><g><path d="M 5.625 -9.515625 L 2.78125 -9.515625 L 2.78125 0 L 1.546875 0 L 1.546875 -14.125 L 2.78125 -14.125 L 2.78125 -10.59375 L 5.625 -10.59375 L 5.625 -14.125 L 6.859375 -14.125 L 6.859375 0 L 5.625 0 Z M 5.625 -9.515625 "/></g></g></g><g fill="#8c52ff" fill-opacity="1"><g transform="translate(602.208719, 282.022934)"><g><path d="M 4.421875 0.203125 C 3.191406 0.203125 2.265625 -0.382812 1.640625 -1.5625 C 1.015625 -2.738281 0.703125 -4.585938 0.703125 -7.109375 C 0.703125 -9.640625 1.015625 -11.488281 1.640625 -12.65625 C 2.265625 -13.820312 3.191406 -14.40625 4.421875 -14.40625 C 5.660156 -14.40625 6.585938 -13.820312 7.203125 -12.65625 C 7.828125 -11.488281 8.140625 -9.640625 8.140625 -7.109375 C 8.140625 -4.585938 7.828125 -2.738281 7.203125 -1.5625 C 6.585938 -0.382812 5.660156 0.203125 4.421875 0.203125 Z M 4.421875 -0.96875 C 4.960938 -0.96875 5.394531 -1.164062 5.71875 -1.5625 C 6.039062 -1.957031 6.285156 -2.46875 6.453125 -3.09375 C 6.617188 -3.71875 6.734375 -4.382812 6.796875 -5.09375 C 6.859375 -5.8125 6.890625 -6.484375 6.890625 -7.109375 C 6.890625 -7.742188 6.859375 -8.410156 6.796875 -9.109375 C 6.734375 -9.816406 6.617188 -10.484375 6.453125 -11.109375 C 6.285156 -11.734375 6.039062 -12.242188 5.71875 -12.640625 C 5.394531 -13.046875 4.960938 -13.25 4.421875 -13.25 C 3.878906 -13.25 3.445312 -13.046875 3.125 -12.640625 C 2.800781 -12.242188 2.554688 -11.734375 2.390625 -11.109375 C 2.222656 -10.484375 2.109375 -9.816406 2.046875 -9.109375 C 1.984375 -8.410156 1.953125 -7.742188 1.953125 -7.109375 C 1.953125 -6.484375 1.984375 -5.8125 2.046875 -5.09375 C 2.109375 -4.382812 2.222656 -3.71875 2.390625 -3.09375 C 2.554688 -2.46875 2.800781 -1.957031 3.125 -1.5625 C 3.445312 -1.164062 3.878906 -0.96875 4.421875 -0.96875 Z M 4.421875 -0.96875 "/></g></g></g><g fill="#8c52ff" fill-opacity="1"><g transform="translate(613.073473, 282.022934)"><g><path d="M 2.828125 -2.46875 C 2.828125 -1.507812 2.78125 -0.675781 2.6875 0.03125 C 2.59375 0.738281 2.382812 1.328125 2.0625 1.796875 C 1.738281 2.265625 1.238281 2.648438 0.5625 2.953125 L 0.0625 1.859375 C 0.382812 1.691406 0.644531 1.515625 0.84375 1.328125 C 1.050781 1.140625 1.207031 0.894531 1.3125 0.59375 C 1.414062 0.300781 1.488281 -0.0859375 1.53125 -0.578125 C 1.570312 -1.066406 1.59375 -1.695312 1.59375 -2.46875 L 1.59375 -14.125 L 2.828125 -14.125 Z M 2.828125 -2.46875 "/></g></g></g><g fill="#8c52ff" fill-opacity="1"><g transform="translate(618.728397, 282.022934)"><g><path d="M 1.546875 -14.125 L 5.890625 -14.125 L 5.890625 -12.953125 L 2.78125 -12.953125 L 2.78125 -10.515625 L 4.703125 -10.515625 L 4.703125 -9.421875 L 2.78125 -9.421875 L 2.78125 -1.1875 L 5.890625 -1.1875 L 5.890625 0 L 1.546875 0 Z M 1.546875 -14.125 "/></g></g></g><g fill="#8c52ff" fill-opacity="1"><g transform="translate(627.250772, 282.022934)"><g><path d="M 6.9375 -11.609375 C 6.9375 -11.117188 6.859375 -10.6875 6.703125 -10.3125 C 6.554688 -9.9375 6.363281 -9.585938 6.125 -9.265625 C 5.894531 -8.953125 5.65625 -8.644531 5.40625 -8.34375 C 5.132812 -7.988281 4.898438 -7.648438 4.703125 -7.328125 C 4.503906 -7.003906 4.347656 -6.644531 4.234375 -6.25 C 4.128906 -5.863281 4.078125 -5.375 4.078125 -4.78125 L 4.078125 -3.4375 L 2.859375 -3.4375 L 2.859375 -4.765625 C 2.859375 -5.597656 2.992188 -6.34375 3.265625 -7 C 3.535156 -7.664062 3.972656 -8.390625 4.578125 -9.171875 C 4.847656 -9.503906 5.097656 -9.863281 5.328125 -10.25 C 5.566406 -10.632812 5.6875 -11.035156 5.6875 -11.453125 C 5.6875 -11.984375 5.53125 -12.410156 5.21875 -12.734375 C 4.90625 -13.054688 4.453125 -13.21875 3.859375 -13.21875 C 3.296875 -13.21875 2.859375 -13.070312 2.546875 -12.78125 C 2.234375 -12.5 1.976562 -12.09375 1.78125 -11.5625 L 0.625 -11.90625 C 0.976562 -12.832031 1.4375 -13.476562 2 -13.84375 C 2.5625 -14.207031 3.210938 -14.390625 3.953125 -14.390625 C 4.503906 -14.390625 5.003906 -14.28125 5.453125 -14.0625 C 5.910156 -13.84375 6.269531 -13.523438 6.53125 -13.109375 C 6.800781 -12.703125 6.9375 -12.203125 6.9375 -11.609375 Z M 3.53125 -1.59375 C 3.789062 -1.59375 4.003906 -1.503906 4.171875 -1.328125 C 4.335938 -1.148438 4.421875 -0.941406 4.421875 -0.703125 C 4.421875 -0.460938 4.335938 -0.253906 4.171875 -0.078125 C 4.003906 0.0976562 3.789062 0.1875 3.53125 0.1875 C 3.289062 0.1875 3.082031 0.0976562 2.90625 -0.078125 C 2.726562 -0.253906 2.640625 -0.460938 2.640625 -0.703125 C 2.640625 -0.941406 2.726562 -1.148438 2.90625 -1.328125 C 3.082031 -1.503906 3.289062 -1.59375 3.53125 -1.59375 Z M 3.53125 -1.59375 "/></g></g></g><g transform="matrix(1, 0, 0, 1, 896, 30)"><g clip-path="url(#99ddd8cc95)"><g clip-path="url(#ecfa9e235e)"><g fill="#8c52ff" fill-opacity="1"><g transform="translate(0.562753, 9.006977)"><g><path d="M 3.234375 -0.75 C 3.097656 -0.488281 2.921875 -0.28125 2.703125 -0.125 C 2.492188 0.0195312 2.25 0.09375 1.96875 0.09375 C 1.414062 0.09375 1 -0.171875 0.71875 -0.703125 C 0.4375 -1.234375 0.296875 -2.0625 0.296875 -3.1875 C 0.296875 -5.351562 0.882812 -6.4375 2.0625 -6.4375 C 2.257812 -6.4375 2.46875 -6.363281 2.6875 -6.21875 C 2.914062 -6.070312 3.097656 -5.859375 3.234375 -5.578125 L 2.828125 -5.296875 C 2.671875 -5.566406 2.515625 -5.738281 2.359375 -5.8125 C 2.210938 -5.882812 2.082031 -5.921875 1.96875 -5.921875 C 1.726562 -5.921875 1.535156 -5.835938 1.390625 -5.671875 C 1.242188 -5.503906 1.132812 -5.289062 1.0625 -5.03125 C 0.988281 -4.78125 0.9375 -4.5 0.90625 -4.1875 C 0.875 -3.882812 0.859375 -3.59375 0.859375 -3.3125 C 0.859375 -3 0.875 -2.671875 0.90625 -2.328125 C 0.9375 -1.992188 0.988281 -1.679688 1.0625 -1.390625 C 1.144531 -1.109375 1.257812 -0.878906 1.40625 -0.703125 C 1.550781 -0.523438 1.753906 -0.4375 2.015625 -0.4375 C 2.210938 -0.4375 2.367188 -0.488281 2.484375 -0.59375 C 2.597656 -0.695312 2.695312 -0.835938 2.78125 -1.015625 Z M 3.234375 -0.75 "/></g></g></g></g><g fill="#8c52ff" fill-opacity="1"><g transform="translate(4.835481, 9.006977)"><g><path d="M 1.96875 0.09375 C 1.425781 0.09375 1.015625 -0.164062 0.734375 -0.6875 C 0.453125 -1.21875 0.3125 -2.046875 0.3125 -3.171875 C 0.3125 -4.304688 0.453125 -5.132812 0.734375 -5.65625 C 1.015625 -6.175781 1.425781 -6.4375 1.96875 -6.4375 C 2.519531 -6.4375 2.9375 -6.175781 3.21875 -5.65625 C 3.5 -5.132812 3.640625 -4.304688 3.640625 -3.171875 C 3.640625 -2.046875 3.5 -1.21875 3.21875 -0.6875 C 2.9375 -0.164062 2.519531 0.09375 1.96875 0.09375 Z M 1.96875 -0.4375 C 2.207031 -0.4375 2.398438 -0.523438 2.546875 -0.703125 C 2.691406 -0.878906 2.800781 -1.101562 2.875 -1.375 C 2.957031 -1.65625 3.007812 -1.957031 3.03125 -2.28125 C 3.0625 -2.601562 3.078125 -2.898438 3.078125 -3.171875 C 3.078125 -3.453125 3.0625 -3.75 3.03125 -4.0625 C 3.007812 -4.382812 2.957031 -4.679688 2.875 -4.953125 C 2.800781 -5.234375 2.691406 -5.460938 2.546875 -5.640625 C 2.398438 -5.828125 2.207031 -5.921875 1.96875 -5.921875 C 1.726562 -5.921875 1.535156 -5.828125 1.390625 -5.640625 C 1.253906 -5.460938 1.144531 -5.234375 1.0625 -4.953125 C 0.988281 -4.679688 0.9375 -4.382812 0.90625 -4.0625 C 0.882812 -3.75 0.875 -3.453125 0.875 -3.171875 C 0.875 -2.898438 0.882812 -2.601562 0.90625 -2.28125 C 0.9375 -1.957031 0.988281 -1.65625 1.0625 -1.375 C 1.144531 -1.101562 1.253906 -0.878906 1.390625 -0.703125 C 1.535156 -0.523438 1.726562 -0.4375 1.96875 -0.4375 Z M 1.96875 -0.4375 "/></g></g></g><g fill="#8c52ff" fill-opacity="1"><g transform="translate(9.685069, 9.006977)"><g><path d="M 3.453125 -6.3125 L 3.453125 0 L 2.90625 0 L 2.90625 -3.484375 L 1.25 -5.46875 L 1.25 0 L 0.6875 0 L 0.6875 -6.3125 L 1.25 -6.3125 L 2.90625 -4.328125 L 2.90625 -6.3125 Z M 3.453125 -6.3125 "/></g></g></g><g fill="#8c52ff" fill-opacity="1"><g transform="translate(14.741964, 9.006977)"><g><path d="M 1.84375 -5.78125 L 1.84375 0 L 1.296875 0 L 1.296875 -5.78125 L 0.171875 -5.78125 L 0.171875 -6.3125 L 2.96875 -6.3125 L 2.96875 -5.78125 Z M 1.84375 -5.78125 "/></g></g></g><g fill="#8c52ff" fill-opacity="1"><g transform="translate(18.789353, 9.006977)"><g><path d="M 2.875 -0.984375 L 1.375 -2.609375 L 0.875 0 L 0.34375 0 L 1.609375 -6.3125 L 2.28125 -6.3125 L 3.625 0 L 3.078125 0 Z M 2.6875 -1.921875 L 1.953125 -5.515625 L 1.5 -3.21875 Z M 2.6875 -1.921875 "/></g></g></g><g fill="#8c52ff" fill-opacity="1"><g transform="translate(23.638941, 9.006977)"><g><path d="M 1.84375 -5.78125 L 1.84375 0 L 1.296875 0 L 1.296875 -5.78125 L 0.171875 -5.78125 L 0.171875 -6.3125 L 2.96875 -6.3125 L 2.96875 -5.78125 Z M 1.84375 -5.78125 "/></g></g></g><g fill="#8c52ff" fill-opacity="1"><g transform="translate(27.68633, 9.006977)"><g><path d="M 2.875 -0.984375 L 1.375 -2.609375 L 0.875 0 L 0.34375 0 L 1.609375 -6.3125 L 2.28125 -6.3125 L 3.625 0 L 3.078125 0 Z M 2.6875 -1.921875 L 1.953125 -5.515625 L 1.5 -3.21875 Z M 2.6875 -1.921875 "/></g></g></g><g fill="#8c52ff" fill-opacity="1"><g transform="translate(32.535918, 9.006977)"><g><path d="M 1.796875 -3 L 1.25 -2.328125 L 1.25 0 L 0.6875 0 L 0.6875 -6.3125 L 2.140625 -6.3125 C 2.546875 -6.3125 2.84375 -6.222656 3.03125 -6.046875 C 3.226562 -5.878906 3.328125 -5.644531 3.328125 -5.34375 C 3.328125 -5.1875 3.300781 -5.039062 3.25 -4.90625 C 3.207031 -4.78125 3.128906 -4.644531 3.015625 -4.5 C 2.910156 -4.363281 2.773438 -4.1875 2.609375 -3.96875 L 2.203125 -3.484375 L 3.625 -0.171875 L 3.125 0.078125 Z M 1.25 -3.0625 L 2.28125 -4.328125 C 2.414062 -4.492188 2.515625 -4.628906 2.578125 -4.734375 C 2.640625 -4.835938 2.6875 -4.929688 2.71875 -5.015625 C 2.75 -5.109375 2.765625 -5.207031 2.765625 -5.3125 C 2.765625 -5.625 2.5625 -5.78125 2.15625 -5.78125 L 1.25 -5.78125 Z M 1.25 -3.0625 "/></g></g></g><g fill="#8c52ff" fill-opacity="1"><g transform="translate(37.313396, 9.006977)"><g/></g></g><g fill="#8c52ff" fill-opacity="1"><g transform="translate(39.567112, 9.006977)"><g><path d="M 1.96875 0.09375 C 1.425781 0.09375 1.015625 -0.164062 0.734375 -0.6875 C 0.453125 -1.21875 0.3125 -2.046875 0.3125 -3.171875 C 0.3125 -4.304688 0.453125 -5.132812 0.734375 -5.65625 C 1.015625 -6.175781 1.425781 -6.4375 1.96875 -6.4375 C 2.519531 -6.4375 2.9375 -6.175781 3.21875 -5.65625 C 3.5 -5.132812 3.640625 -4.304688 3.640625 -3.171875 C 3.640625 -2.046875 3.5 -1.21875 3.21875 -0.6875 C 2.9375 -0.164062 2.519531 0.09375 1.96875 0.09375 Z M 1.96875 -0.4375 C 2.207031 -0.4375 2.398438 -0.523438 2.546875 -0.703125 C 2.691406 -0.878906 2.800781 -1.101562 2.875 -1.375 C 2.957031 -1.65625 3.007812 -1.957031 3.03125 -2.28125 C 3.0625 -2.601562 3.078125 -2.898438 3.078125 -3.171875 C 3.078125 -3.453125 3.0625 -3.75 3.03125 -4.0625 C 3.007812 -4.382812 2.957031 -4.679688 2.875 -4.953125 C 2.800781 -5.234375 2.691406 -5.460938 2.546875 -5.640625 C 2.398438 -5.828125 2.207031 -5.921875 1.96875 -5.921875 C 1.726562 -5.921875 1.535156 -5.828125 1.390625 -5.640625 C 1.253906 -5.460938 1.144531 -5.234375 1.0625 -4.953125 C 0.988281 -4.679688 0.9375 -4.382812 0.90625 -4.0625 C 0.882812 -3.75 0.875 -3.453125 0.875 -3.171875 C 0.875 -2.898438 0.882812 -2.601562 0.90625 -2.28125 C 0.9375 -1.957031 0.988281 -1.65625 1.0625 -1.375 C 1.144531 -1.101562 1.253906 -0.878906 1.390625 -0.703125 C 1.535156 -0.523438 1.726562 -0.4375 1.96875 -0.4375 Z M 1.96875 -0.4375 "/></g></g></g><g fill="#8c52ff" fill-opacity="1"><g transform="translate(44.416701, 9.006977)"><g/></g></g><g fill="#8c52ff" fill-opacity="1"><g transform="translate(46.670416, 9.006977)"><g><path d="M 1.890625 -3.625 C 2.085938 -3.425781 2.265625 -3.226562 2.421875 -3.03125 C 2.578125 -2.832031 2.703125 -2.617188 2.796875 -2.390625 C 2.890625 -2.171875 2.9375 -1.914062 2.9375 -1.625 C 2.9375 -1.113281 2.800781 -0.695312 2.53125 -0.375 C 2.269531 -0.0625 1.925781 0.09375 1.5 0.09375 C 1.1875 0.09375 0.925781 0.0234375 0.71875 -0.109375 C 0.519531 -0.242188 0.328125 -0.453125 0.140625 -0.734375 L 0.625 -1 C 0.78125 -0.789062 0.921875 -0.648438 1.046875 -0.578125 C 1.179688 -0.503906 1.34375 -0.46875 1.53125 -0.46875 C 1.726562 -0.46875 1.878906 -0.503906 1.984375 -0.578125 C 2.097656 -0.648438 2.179688 -0.742188 2.234375 -0.859375 C 2.296875 -0.984375 2.332031 -1.109375 2.34375 -1.234375 C 2.363281 -1.359375 2.375 -1.46875 2.375 -1.5625 C 2.375 -1.78125 2.34375 -1.96875 2.28125 -2.125 C 2.226562 -2.289062 2.140625 -2.453125 2.015625 -2.609375 C 1.898438 -2.773438 1.738281 -2.957031 1.53125 -3.15625 C 1.226562 -3.445312 0.976562 -3.742188 0.78125 -4.046875 C 0.582031 -4.347656 0.476562 -4.710938 0.46875 -5.140625 C 0.457031 -5.546875 0.554688 -5.863281 0.765625 -6.09375 C 0.984375 -6.320312 1.242188 -6.4375 1.546875 -6.4375 C 1.796875 -6.4375 2.003906 -6.367188 2.171875 -6.234375 C 2.347656 -6.109375 2.5 -5.898438 2.625 -5.609375 L 2.09375 -5.390625 C 2.007812 -5.578125 1.925781 -5.703125 1.84375 -5.765625 C 1.769531 -5.835938 1.671875 -5.875 1.546875 -5.875 C 1.378906 -5.875 1.25 -5.804688 1.15625 -5.671875 C 1.0625 -5.546875 1.019531 -5.375 1.03125 -5.15625 C 1.03125 -4.84375 1.113281 -4.566406 1.28125 -4.328125 C 1.445312 -4.097656 1.648438 -3.863281 1.890625 -3.625 Z M 1.890625 -3.625 "/></g></g></g><g fill="#8c52ff" fill-opacity="1"><g transform="translate(50.68175, 9.006977)"><g><path d="M 3.671875 -1.515625 C 3.671875 -1.035156 3.546875 -0.648438 3.296875 -0.359375 C 3.054688 -0.0664062 2.675781 0.078125 2.15625 0.078125 C 1.664062 0.078125 1.285156 -0.0507812 1.015625 -0.3125 C 0.753906 -0.582031 0.625 -0.960938 0.625 -1.453125 L 0.625 -6.3125 L 1.1875 -6.3125 L 1.1875 -1.53125 C 1.1875 -1.125 1.28125 -0.835938 1.46875 -0.671875 C 1.65625 -0.503906 1.90625 -0.421875 2.21875 -0.421875 C 2.476562 -0.421875 2.691406 -0.503906 2.859375 -0.671875 C 3.035156 -0.835938 3.125 -1.125 3.125 -1.53125 L 3.125 -6.3125 L 3.671875 -6.3125 Z M 3.671875 -1.515625 "/></g></g></g><g fill="#8c52ff" fill-opacity="1"><g transform="translate(55.900887, 9.006977)"><g><path d="M 3.328125 -5.390625 C 3.328125 -5.210938 3.300781 -5.054688 3.25 -4.921875 C 3.207031 -4.796875 3.128906 -4.660156 3.015625 -4.515625 C 2.910156 -4.367188 2.773438 -4.1875 2.609375 -3.96875 L 1.25 -2.328125 L 1.25 0 L 0.6875 0 L 0.6875 -6.3125 L 2.140625 -6.3125 C 2.546875 -6.3125 2.84375 -6.226562 3.03125 -6.0625 C 3.226562 -5.894531 3.328125 -5.671875 3.328125 -5.390625 Z M 2.28125 -4.328125 C 2.414062 -4.492188 2.515625 -4.628906 2.578125 -4.734375 C 2.640625 -4.835938 2.6875 -4.929688 2.71875 -5.015625 C 2.75 -5.109375 2.765625 -5.207031 2.765625 -5.3125 C 2.765625 -5.625 2.5625 -5.78125 2.15625 -5.78125 L 1.25 -5.78125 L 1.25 -3.0625 Z M 2.28125 -4.328125 "/></g></g></g><g fill="#8c52ff" fill-opacity="1"><g transform="translate(60.281775, 9.006977)"><g><path d="M 1.96875 0.09375 C 1.425781 0.09375 1.015625 -0.164062 0.734375 -0.6875 C 0.453125 -1.21875 0.3125 -2.046875 0.3125 -3.171875 C 0.3125 -4.304688 0.453125 -5.132812 0.734375 -5.65625 C 1.015625 -6.175781 1.425781 -6.4375 1.96875 -6.4375 C 2.519531 -6.4375 2.9375 -6.175781 3.21875 -5.65625 C 3.5 -5.132812 3.640625 -4.304688 3.640625 -3.171875 C 3.640625 -2.046875 3.5 -1.21875 3.21875 -0.6875 C 2.9375 -0.164062 2.519531 0.09375 1.96875 0.09375 Z M 1.96875 -0.4375 C 2.207031 -0.4375 2.398438 -0.523438 2.546875 -0.703125 C 2.691406 -0.878906 2.800781 -1.101562 2.875 -1.375 C 2.957031 -1.65625 3.007812 -1.957031 3.03125 -2.28125 C 3.0625 -2.601562 3.078125 -2.898438 3.078125 -3.171875 C 3.078125 -3.453125 3.0625 -3.75 3.03125 -4.0625 C 3.007812 -4.382812 2.957031 -4.679688 2.875 -4.953125 C 2.800781 -5.234375 2.691406 -5.460938 2.546875 -5.640625 C 2.398438 -5.828125 2.207031 -5.921875 1.96875 -5.921875 C 1.726562 -5.921875 1.535156 -5.828125 1.390625 -5.640625 C 1.253906 -5.460938 1.144531 -5.234375 1.0625 -4.953125 C 0.988281 -4.679688 0.9375 -4.382812 0.90625 -4.0625 C 0.882812 -3.75 0.875 -3.453125 0.875 -3.171875 C 0.875 -2.898438 0.882812 -2.601562 0.90625 -2.28125 C 0.9375 -1.957031 0.988281 -1.65625 1.0625 -1.375 C 1.144531 -1.101562 1.253906 -0.878906 1.390625 -0.703125 C 1.535156 -0.523438 1.726562 -0.4375 1.96875 -0.4375 Z M 1.96875 -0.4375 "/></g></g></g><g fill="#8c52ff" fill-opacity="1"><g transform="translate(65.131364, 9.006977)"><g><path d="M 1.796875 -3 L 1.25 -2.328125 L 1.25 0 L 0.6875 0 L 0.6875 -6.3125 L 2.140625 -6.3125 C 2.546875 -6.3125 2.84375 -6.222656 3.03125 -6.046875 C 3.226562 -5.878906 3.328125 -5.644531 3.328125 -5.34375 C 3.328125 -5.1875 3.300781 -5.039062 3.25 -4.90625 C 3.207031 -4.78125 3.128906 -4.644531 3.015625 -4.5 C 2.910156 -4.363281 2.773438 -4.1875 2.609375 -3.96875 L 2.203125 -3.484375 L 3.625 -0.171875 L 3.125 0.078125 Z M 1.25 -3.0625 L 2.28125 -4.328125 C 2.414062 -4.492188 2.515625 -4.628906 2.578125 -4.734375 C 2.640625 -4.835938 2.6875 -4.929688 2.71875 -5.015625 C 2.75 -5.109375 2.765625 -5.207031 2.765625 -5.3125 C 2.765625 -5.625 2.5625 -5.78125 2.15625 -5.78125 L 1.25 -5.78125 Z M 1.25 -3.0625 "/></g></g></g><g fill="#8c52ff" fill-opacity="1"><g transform="translate(69.908842, 9.006977)"><g><path d="M 1.84375 -5.78125 L 1.84375 0 L 1.296875 0 L 1.296875 -5.78125 L 0.171875 -5.78125 L 0.171875 -6.3125 L 2.96875 -6.3125 L 2.96875 -5.78125 Z M 1.84375 -5.78125 "/></g></g></g><g fill="#8c52ff" fill-opacity="1"><g transform="translate(73.956231, 9.006977)"><g><path d="M 0.6875 -6.3125 L 2.625 -6.3125 L 2.625 -5.78125 L 1.25 -5.78125 L 1.25 -4.703125 L 2.09375 -4.703125 L 2.09375 -4.203125 L 1.25 -4.203125 L 1.25 -0.53125 L 2.625 -0.53125 L 2.625 0 L 0.6875 0 Z M 0.6875 -6.3125 "/></g></g></g></g></g></svg>